<?xml version="1.0" encoding="UTF-8"?>
<svg xmlns="http://www.w3.org/2000/svg" xmlns:xlink="http://www.w3.org/1999/xlink" width="100px" height="100px" viewBox="0 0 100 100" version="1.1">
<defs>
<radialGradient id="radial0" gradientUnits="userSpaceOnUse" cx="0.483397" cy="0.494186" fx="0.483397" fy="0.494186" r="0.704381" gradientTransform="matrix(37.351562,0,0,37.347604,31.304688,31.125709)">
<stop offset="0" style="stop-color:rgb(0%,0%,0%);stop-opacity:1;"/>
<stop offset="1" style="stop-color:rgb(0%,0%,0%);stop-opacity:0;"/>
</radialGradient>
<radialGradient id="radial1" gradientUnits="userSpaceOnUse" cx="0.483397" cy="0.494186" fx="0.483397" fy="0.494186" r="0.704381" gradientTransform="matrix(37.351562,0,0,37.347604,31.304688,31.125709)">
<stop offset="0" style="stop-color:rgb(0%,0%,0%);stop-opacity:1;"/>
<stop offset="1" style="stop-color:rgb(0%,0%,0%);stop-opacity:0;"/>
</radialGradient>
</defs>
<g id="surface1">
<path style=" stroke:none;fill-rule:nonzero;fill:rgb(0%,0%,0%);fill-opacity:1;" d="M 0 0 L 99.960938 0 L 99.960938 99.960938 L 0 99.960938 Z M 0 0 "/>
<path style="fill-rule:nonzero;fill:rgb(69.411765%,2.352941%,5.882353%);fill-opacity:1;stroke-width:2.956221;stroke-linecap:butt;stroke-linejoin:miter;stroke:rgb(0%,0%,0%);stroke-opacity:1;stroke-miterlimit:4;" d="M 141.68 41.27 L 141.61 79.64 L 141.54 118 L 138.39 109.09 C 138.38 109.09 138.38 109.08 138.38 109.07 L 134.3 194.48 C 138.31 205.8 140.46 211.85 140.48 211.87 C 140.51 211.9 142.8 212.04 145.56 212.18 C 153.93 212.59 164.3 213.48 172.16 214.46 C 173.98 214.68 175.55 214.8 175.64 214.72 C 175.74 214.63 175.79 175.57 175.76 127.92 L 175.7 41.27 Z M 141.68 41.27 " transform="matrix(0.390625,0,0,0.390625,0,0)"/>
<path style="fill-rule:nonzero;fill:rgb(69.411765%,2.352941%,5.882353%);fill-opacity:1;stroke-width:2.956221;stroke-linecap:butt;stroke-linejoin:miter;stroke:rgb(0%,0%,0%);stroke-opacity:1;stroke-miterlimit:4;" d="M 80.14 41.16 L 80.14 127.89 C 80.14 175.59 80.18 214.67 80.24 214.73 C 80.3 214.79 83.25 214.51 86.81 214.11 C 90.36 213.71 95.27 213.22 97.72 213.01 C 101.48 212.69 112.69 211.97 113.99 211.96 C 114.37 211.96 114.39 210.01 114.45 175.23 L 114.5 138.49 L 117.22 146.17 C 117.64 147.36 117.77 147.73 118.18 148.88 L 122.25 63.5 C 121.39 61.06 121.84 62.34 120.85 59.54 C 117.52 50.12 114.69 42.13 114.57 41.79 L 114.34 41.16 Z M 80.14 41.16 " transform="matrix(0.390625,0,0,0.390625,0,0)"/>
<path style=" stroke:none;fill-rule:nonzero;fill:url(#radial0);" d="M 31.304688 16.078125 L 31.304688 35.097656 L 44.699219 70.632812 C 44.703125 69.820312 44.703125 69.378906 44.707031 68.449219 L 44.726562 54.097656 L 45.789062 57.097656 C 51.6875 73.792969 54.859375 82.742188 54.875 82.761719 C 54.886719 82.773438 55.78125 82.828125 56.859375 82.882812 C 60.128906 83.042969 64.179688 83.390625 67.25 83.773438 C 67.960938 83.859375 68.574219 83.90625 68.609375 83.875 C 68.636719 83.851562 68.652344 76.371094 68.65625 65.816406 L 55.324219 27.480469 L 55.316406 31.109375 L 55.289062 46.09375 L 54.054688 42.613281 C 52.851562 39.214844 52.046875 36.941406 47.207031 23.257812 C 45.90625 19.578125 44.800781 16.457031 44.753906 16.324219 L 44.664062 16.078125 Z M 31.304688 16.078125 "/>
<path style=" stroke:none;fill-rule:nonzero;fill:rgb(89.803922%,3.529412%,7.843137%);fill-opacity:1;" d="M 31.304688 16.078125 L 44.726562 54.117188 L 44.726562 54.097656 L 45.789062 57.097656 C 51.6875 73.792969 54.859375 82.742188 54.875 82.761719 C 54.886719 82.773438 55.78125 82.828125 56.859375 82.882812 C 60.128906 83.042969 64.179688 83.390625 67.25 83.773438 C 67.957031 83.859375 68.566406 83.90625 68.609375 83.875 L 55.289062 46.085938 L 55.289062 46.09375 L 54.058594 42.613281 C 52.851562 39.214844 52.046875 36.941406 47.207031 23.257812 C 45.90625 19.578125 44.800781 16.457031 44.753906 16.324219 L 44.664062 16.078125 Z M 31.304688 16.078125 "/>
<path style="fill-rule:nonzero;fill:rgb(69.411765%,2.352941%,5.882353%);fill-opacity:1;stroke-width:2.956221;stroke-linecap:butt;stroke-linejoin:miter;stroke:rgb(0%,0%,0%);stroke-opacity:1;stroke-miterlimit:4;" d="M 141.68 41.27 L 141.61 79.64 L 141.54 118 L 138.39 109.09 C 138.38 109.09 138.38 109.08 138.38 109.07 L 134.3 194.48 C 138.31 205.8 140.46 211.85 140.48 211.87 C 140.51 211.9 142.8 212.04 145.56 212.18 C 153.93 212.59 164.3 213.48 172.16 214.46 C 173.98 214.68 175.55 214.8 175.64 214.72 C 175.74 214.63 175.79 175.57 175.76 127.92 L 175.7 41.27 Z M 141.68 41.27 " transform="matrix(0.390625,0,0,0.390625,0,0)"/>
<path style="fill-rule:nonzero;fill:rgb(69.411765%,2.352941%,5.882353%);fill-opacity:1;stroke-width:2.956221;stroke-linecap:butt;stroke-linejoin:miter;stroke:rgb(0%,0%,0%);stroke-opacity:1;stroke-miterlimit:4;" d="M 80.14 41.16 L 80.14 127.89 C 80.14 175.59 80.18 214.67 80.24 214.73 C 80.3 214.79 83.25 214.51 86.81 214.11 C 90.36 213.71 95.27 213.22 97.72 213.01 C 101.48 212.69 112.69 211.97 113.99 211.96 C 114.37 211.96 114.39 210.01 114.45 175.23 L 114.5 138.49 L 117.22 146.17 C 117.64 147.36 117.77 147.73 118.18 148.88 L 122.25 63.5 C 121.39 61.06 121.84 62.34 120.85 59.54 C 117.52 50.12 114.69 42.13 114.57 41.79 L 114.34 41.16 Z M 80.14 41.16 " transform="matrix(0.390625,0,0,0.390625,0,0)"/>
<path style=" stroke:none;fill-rule:nonzero;fill:url(#radial1);" d="M 31.304688 16.078125 L 31.304688 35.097656 L 44.699219 70.632812 C 44.703125 69.820312 44.703125 69.378906 44.707031 68.449219 L 44.726562 54.097656 L 45.789062 57.097656 C 51.6875 73.792969 54.859375 82.742188 54.875 82.761719 C 54.886719 82.773438 55.78125 82.828125 56.859375 82.882812 C 60.128906 83.042969 64.179688 83.390625 67.25 83.773438 C 67.960938 83.859375 68.574219 83.90625 68.609375 83.875 C 68.636719 83.851562 68.652344 76.371094 68.65625 65.816406 L 55.324219 27.480469 L 55.316406 31.109375 L 55.289062 46.09375 L 54.054688 42.613281 C 52.851562 39.214844 52.046875 36.941406 47.207031 23.257812 C 45.90625 19.578125 44.800781 16.457031 44.753906 16.324219 L 44.664062 16.078125 Z M 31.304688 16.078125 "/>
<path style=" stroke:none;fill-rule:nonzero;fill:rgb(89.803922%,3.529412%,7.843137%);fill-opacity:1;" d="M 31.304688 16.078125 L 44.726562 54.117188 L 44.726562 54.097656 L 45.789062 57.097656 C 51.6875 73.792969 54.859375 82.742188 54.875 82.761719 C 54.886719 82.773438 55.78125 82.828125 56.859375 82.882812 C 60.128906 83.042969 64.179688 83.390625 67.25 83.773438 C 67.957031 83.859375 68.566406 83.90625 68.609375 83.875 L 55.289062 46.085938 L 55.289062 46.09375 L 54.058594 42.613281 C 52.851562 39.214844 52.046875 36.941406 47.207031 23.257812 C 45.90625 19.578125 44.800781 16.457031 44.753906 16.324219 L 44.664062 16.078125 Z M 31.304688 16.078125 "/>
</g>
</svg>
