<svg xmlns="http://www.w3.org/2000/svg" width="25" height="24" fill="none" viewBox="0 0 25 24" id="crunchyroll"><rect width="24" height="24" x=".463" fill="url(#paint0_linear_302_5235)" rx="8"></rect><path fill="#fff" fill-rule="evenodd" d="M20 12C20 12.1901 19.9934 12.3787 19.9803 12.5655C19.7119 8.99517 16.73 6.18182 13.0909 6.18182C9.27512 6.18182 6.18182 9.27512 6.18182 13.0909C6.18182 16.73 8.99517 19.7119 12.5655 19.9803C12.3787 19.9934 12.1901 20 12 20C7.58172 20 4 16.4183 4 12C4 7.58172 7.58172 4 12 4C16.4183 4 20 7.58172 20 12ZM18.9091 13.4545C18.9091 16.467 16.467 18.9091 13.4545 18.9091C10.4421 18.9091 8 16.467 8 13.4545C8 10.4421 10.4421 8 13.4545 8C14.2983 8 15.0975 8.19161 15.8106 8.53369C14.8577 8.90165 14.1818 9.82644 14.1818 10.9091C14.1818 12.3149 15.3215 13.4545 16.7273 13.4545C17.5843 13.4545 18.3423 13.0311 18.8036 12.3819C18.8728 12.7287 18.9091 13.0873 18.9091 13.4545Z" clip-rule="evenodd"></path><defs><linearGradient id="paint0_linear_302_5235" x1=".463" x2="24.463" y1="12" y2="12" gradientUnits="userSpaceOnUse"><stop stop-color="#ED6D6B"></stop><stop offset="1" stop-color="#F0B076"></stop></linearGradient></defs></svg>